<svg xmlns="http://www.w3.org/2000/svg" width="40.447" height="33.706" viewBox="7070 418 40.447 33.706"><path d="m7108.762 433.185-8.427-.017a1.69 1.69 0 0 0-1.685 1.685v15.168a1.69 1.69 0 0 0 1.685 1.685h8.427a1.69 1.69 0 0 0 1.685-1.685v-15.168c0-.927-.758-1.668-1.685-1.668Zm0 15.15h-8.427v-11.797h8.427v11.797ZM7103.706 418h-30.335c-1.871 0-3.371 1.5-3.371 3.37v20.224a3.37 3.37 0 0 0 3.37 3.37h11.798v3.371h-3.37v3.37h13.481v-3.37h-3.37v-3.37h3.37v-3.37h-21.908V421.37h30.335v8.426h3.37v-8.426a3.37 3.37 0 0 0-3.37-3.371Zm-13.533 11.797-1.635-5.056-1.634 5.056h-5.107l4.163 2.966-1.584 4.904 4.162-3.033 4.163 3.033-1.584-4.904 4.162-2.966h-5.106Z" fill="#758bfd" fill-rule="evenodd" data-name="ic_important_devices_24px"/></svg>