<svg xmlns="http://www.w3.org/2000/svg" width="40.447" height="30.335" viewBox="6944 547 40.447 30.335"><path d="M6979.391 555.426v-1.685l-5.056 3.37-5.056-3.37v1.685l5.056 3.371 5.056-3.37Zm1.686-8.426h-33.706a3.38 3.38 0 0 0-3.371 3.37v23.595a3.38 3.38 0 0 0 3.37 3.37h33.707c1.853 0 3.353-1.516 3.353-3.37l.017-23.594a3.38 3.38 0 0 0-3.37-3.371Zm-23.595 5.056a5.05 5.05 0 0 1 5.056 5.056 5.05 5.05 0 0 1-5.056 5.056 5.05 5.05 0 0 1-5.056-5.056 5.05 5.05 0 0 1 5.056-5.056Zm10.112 20.223h-20.223v-1.685c0-3.37 6.74-5.224 10.111-5.224 3.371 0 10.112 1.854 10.112 5.224v1.685Zm13.483-10.111h-13.483v-10.112h13.483v10.112Z" fill="#758bfd" fill-rule="evenodd" data-name="ic_contact_mail_24px"/></svg>