<svg xmlns="http://www.w3.org/2000/svg" width="33.706" height="33.706" viewBox="6947 418 33.706 33.706"><path d="M6958.797 434.432a2.107 2.107 0 1 0 .002 4.214 2.107 2.107 0 0 0-.002-4.214Zm10.112 0a2.107 2.107 0 1 0 .001 4.214 2.107 2.107 0 0 0-.001-4.214ZM6963.853 418c-9.303 0-16.853 7.55-16.853 16.853s7.55 16.853 16.853 16.853 16.853-7.55 16.853-16.853-7.55-16.853-16.853-16.853Zm0 30.335c-7.432 0-13.482-6.05-13.482-13.482 0-.489.033-.978.084-1.45a16.957 16.957 0 0 0 8.78-9.05c3.05 4.315 8.073 7.13 13.752 7.13a16.45 16.45 0 0 0 3.792-.439c.354 1.197.556 2.478.556 3.809 0 7.432-6.05 13.482-13.482 13.482Z" fill="#758bfd" fill-rule="evenodd" data-name="ic_face_24px"/></svg>