<svg xmlns="http://www.w3.org/2000/svg" width="30.335" height="33.706" viewBox="7075 545 30.335 33.706"><path d="m7097.802 561.954-1.786-1.786-8.225 8.224-3.572-3.573-1.787 1.786 5.36 5.36 10.01-10.01Zm4.163-13.583h-1.686V545h-3.37v3.37h-13.483V545h-3.37v3.37h-1.685a3.355 3.355 0 0 0-3.354 3.371l-.017 23.594a3.37 3.37 0 0 0 3.37 3.37h23.595a3.38 3.38 0 0 0 3.37-3.37v-23.594a3.38 3.38 0 0 0-3.37-3.37Zm0 26.964h-23.594v-18.538h23.594v18.538Z" fill="#758bfd" fill-rule="evenodd" data-name="ic_event_available_24px"/></svg>